<?xml version="1.0" encoding="utf-8"?>
<!-- Generator: Adobe Illustrator 26.2.1, SVG Export Plug-In . SVG Version: 6.00 Build 0)  -->
<svg version="1.1" id="Capa_1" xmlns="http://www.w3.org/2000/svg" xmlns:xlink="http://www.w3.org/1999/xlink" x="0px" y="0px"
	 viewBox="0 0 1920 1080" style="enable-background:new 0 0 1920 1080;" xml:space="preserve">
<style type="text/css">
	.st0{fill:none;}
	.st1{fill:#DCAB08;}
	.st2{font-family:'Georgia';}
	.st3{font-size:326.4739px;}
</style>
<path class="st0" d="M666.76,698.97h-43.58c0,0,21.79,0,21.79-22.15C644.97,698.97,666.76,698.97,666.76,698.97z"/>
<path class="st0" d="M666.76,243.32c0,0-21.79,0-21.79,22.15c0-22.15-21.79-22.15-21.79-22.15H666.76z"/>
<path class="st0" d="M666.76,243.32c0,0-21.79,0-21.79,22.15c0-22.15-21.79-22.15-21.79-22.15H666.76z"/>
<path d="M729.02,243.32v44.3h-40.47c0,0-21.79,0-21.79,22.15v322.75c0,22.15,21.79,22.15,21.79,22.15h40.47v44.3h-62.26
	c0,0-21.79,0-21.79-22.15c0,22.15-21.79,22.15-21.79,22.15h-62.26v-44.3h40.47c0,0,21.79,0,21.79-22.15V309.77
	c0-22.15-21.79-22.15-21.79-22.15h-40.47v-44.3h62.26c0,0,21.79,0,21.79,22.15c0-22.15,21.79-22.15,21.79-22.15H729.02z"/>
<path class="st0" d="M666.76,698.97h-43.58c0,0,21.79,0,21.79-22.15C644.97,698.97,666.76,698.97,666.76,698.97z"/>
<path class="st0" d="M859.76,374.64c0,48.06-38.32,87.02-85.6,87.02h-60.7v28.92c-13.67-7.4-25.87-17.21-36.05-28.92
	c-3.86-4.43-7.41-9.11-10.65-14.05V309.77c0-22.15,21.79-22.15,21.79-22.15h40.47v-36.04c14.04-5.35,29.26-8.26,45.14-8.26h1.56
	v44.3h-1.56C821.44,287.62,859.76,326.57,859.76,374.64z"/>
<ellipse class="st0" cx="774.15" cy="374.64" rx="85.6" ry="87.02"/>
<rect x="729.02" y="243.32" class="st0" width="46.69" height="44.3"/>
<path d="M903.33,374.64c0,71.99-57,130.46-127.62,131.32h-62.26v-44.3h60.7c47.28,0,85.6-38.95,85.6-87.02s-38.32-87.02-85.6-87.02
	h1.56v-44.3C846.34,244.18,903.33,302.65,903.33,374.64z"/>
<path class="st1" d="M743.24,316.1c7.99,39.97,7.99,39.97,7.99,39.97l-32.11-17.08l-11.89,36.8l35.53,4.23l-26.2,27.47l30.19,22.01
	l16.55-35.24l16.36,35.77l29.72-22.89l-26.52-27.29l36.43-3.7l-11.5-36.97l-32.11,17.08l7.26-40.14H743.24z"/>
<rect x="666.76" y="461.66" class="st0" width="46.69" height="44.3"/>
<path class="st1" d="M573.38,461.66c3.11,15.54,3.11,15.54,3.11,15.54L564,470.56l-4.62,14.31l13.82,1.64L563,497.19l11.74,8.56
	l6.44-13.71l6.36,13.91l11.56-8.9l-10.31-10.61l14.17-1.44l-4.47-14.38l-12.49,6.64l2.82-15.61H573.38z"/>
<path class="st1" d="M574.34,335.09c3.11,15.54,3.11,15.54,3.11,15.54l-12.49-6.64l-4.62,14.31l13.82,1.64l-10.19,10.68l11.74,8.56
	l6.44-13.71l6.36,13.91l11.56-8.9l-10.31-10.61l14.17-1.44l-4.47-14.38l-12.49,6.64l2.82-15.61H574.34z"/>
<path class="st1" d="M574.34,588.23c3.11,15.54,3.11,15.54,3.11,15.54l-12.49-6.64l-4.62,14.31l13.82,1.64l-10.19,10.68l11.74,8.56
	l6.44-13.71l6.36,13.91l11.56-8.9l-10.31-10.61l14.17-1.44l-4.47-14.38l-12.49,6.64l2.82-15.61H574.34z"/>
<rect x="787.56" y="798.21" class="st0" width="84.08" height="80.19"/>
<rect x="777.27" y="447.57" class="st0" width="583.36" height="251.4"/>
<text transform="matrix(0.9787 0 0 1 777.2664 694.3873)" class="st2 st3">asst</text>
</svg>
