<?xml version="1.0" encoding="utf-8"?>
<!-- Generator: Adobe Illustrator 26.2.1, SVG Export Plug-In . SVG Version: 6.00 Build 0)  -->
<svg version="1.1" id="Capa_1" xmlns="http://www.w3.org/2000/svg" xmlns:xlink="http://www.w3.org/1999/xlink" x="0px" y="0px"
	 viewBox="0 0 160 160" style="enable-background:new 0 0 160 160;" xml:space="preserve">
<style type="text/css">
	.st0{fill:none;}
	.st1{fill:#DCAB08;}
	.st2{font-family:'Georgia';}
	.st3{font-size:57px;}
</style>
<path class="st0" d="M63,153H49c0,0,7,0,7-7C56,153,63,153,63,153z"/>
<path class="st0" d="M63,153H49c0,0,7,0,7-7C56,153,63,153,63,153z"/>
<rect x="63" y="78" class="st0" width="15" height="14"/>
<path class="st1" d="M58.51,87c0.36,1.75,0.36,1.75,0.36,1.75L57.44,88l-0.53,1.62l1.59,0.19l-1.17,1.21l1.35,0.97l0.74-1.55
	L60.14,92l1.33-1l-1.18-1.2l1.63-0.16l-0.51-1.62l-1.43,0.75L60.28,87H58.51z"/>
<rect x="11.62" y="54.4" class="st0" width="133.38" height="46.6"/>
<text transform="matrix(1 0 0 1 11.6172 97.4961)" class="st2 st3">Passt</text>
<path class="st1" d="M58.72,74c0.36,1.75,0.36,1.75,0.36,1.75L57.65,75l-0.53,1.62l1.59,0.19l-1.17,1.21l1.35,0.97l0.74-1.55
	L60.35,79l1.33-1l-1.18-1.2l1.63-0.16l-0.51-1.62l-1.43,0.75L60.49,74H58.72z"/>
<path class="st1" d="M58.72,61c0.36,1.75,0.36,1.75,0.36,1.75L57.65,62l-0.53,1.62l1.59,0.19l-1.17,1.21l1.35,0.97l0.74-1.55
	L60.35,66l1.33-1l-1.18-1.2l1.63-0.16l-0.51-1.62l-1.43,0.75L60.49,61H58.72z"/>
</svg>
