<?xml version="1.0" encoding="utf-8"?>
<!-- Generator: Adobe Illustrator 26.2.1, SVG Export Plug-In . SVG Version: 6.00 Build 0)  -->
<svg version="1.1" id="Capa_1" xmlns="http://www.w3.org/2000/svg" xmlns:xlink="http://www.w3.org/1999/xlink" x="0px" y="0px"
	 viewBox="0 0 1920 1080" style="enable-background:new 0 0 1920 1080;" xml:space="preserve">
<style type="text/css">
	.st0{fill:none;}
	.st1{fill:#DCAB08;}
</style>
<path class="st0" d="M838.06,924.5H759.9c0,0,39.08,0,39.08-37.33C798.98,924.5,838.06,924.5,838.06,924.5z"/>
<path class="st0" d="M838.06,156.5c0,0-39.08,0-39.08,37.33c0-37.33-39.08-37.33-39.08-37.33H838.06z"/>
<path class="st0" d="M838.06,156.5c0,0-39.08,0-39.08,37.33c0-37.33-39.08-37.33-39.08-37.33H838.06z"/>
<path d="M949.7,156.5v74.67h-72.57c0,0-39.08,0-39.08,37.33v544c0,37.33,39.08,37.33,39.08,37.33h72.57v74.67H838.06
	c0,0-39.08,0-39.08-37.33c0,37.33-39.08,37.33-39.08,37.33H648.26v-74.67h72.57c0,0,39.08,0,39.08-37.33v-544
	c0-37.33-39.08-37.33-39.08-37.33h-72.57V156.5H759.9c0,0,39.08,0,39.08,37.33c0-37.33,39.08-37.33,39.08-37.33H949.7z"/>
<path class="st0" d="M838.06,924.5H759.9c0,0,39.08,0,39.08-37.33C798.98,924.5,838.06,924.5,838.06,924.5z"/>
<path class="st0" d="M1184.16,377.83c0,81.01-68.72,146.67-153.51,146.67H921.79v48.75c-24.51-12.48-46.39-29.01-64.64-48.75
	c-6.92-7.47-13.29-15.36-19.09-23.68V268.5c0-37.33,39.08-37.33,39.08-37.33h72.57v-60.75c25.18-9.01,52.47-13.92,80.94-13.92h2.79
	v74.67h-2.79C1115.44,231.17,1184.16,296.82,1184.16,377.83z"/>
<ellipse class="st0" cx="1030.65" cy="377.83" rx="153.51" ry="146.67"/>
<rect x="949.7" y="156.5" class="st0" width="83.74" height="74.67"/>
<path d="M1262.32,377.83c0,121.33-102.21,219.89-228.88,221.33H921.79V524.5h108.86c84.8,0,153.51-65.65,153.51-146.67
	s-68.72-146.67-153.51-146.67h2.79V156.5C1160.1,157.94,1262.32,256.5,1262.32,377.83z"/>
<path class="st1" d="M975.21,279.17c14.33,67.36,14.33,67.36,14.33,67.36l-57.59-28.79l-21.32,62.02l63.73,7.12l-46.99,46.29
	l54.15,37.09l29.69-59.4l29.34,60.29l53.29-38.58l-47.56-46l65.32-6.23l-20.63-62.32l-57.59,28.79l13.02-67.66H975.21z"/>
<rect x="838.06" y="524.5" class="st0" width="83.74" height="74.67"/>
<path class="st1" d="M670.58,524.5c5.57,26.2,5.57,26.2,5.57,26.2l-22.4-11.19l-8.29,24.12l24.78,2.77l-18.27,18l21.06,14.43
	l11.54-23.1l11.41,23.45l20.72-15l-18.5-17.89l25.4-2.42l-8.02-24.23l-22.4,11.19l5.06-26.31H670.58z"/>
<path class="st1" d="M672.31,311.17c5.57,26.2,5.57,26.2,5.57,26.2l-22.4-11.19l-8.29,24.12l24.78,2.77l-18.27,18l21.06,14.43
	l11.54-23.1l11.41,23.45l20.72-15l-18.5-17.89l25.4-2.42l-8.02-24.23l-22.4,11.19l5.06-26.31H672.31z"/>
<path class="st1" d="M672.31,737.83c5.57,26.2,5.57,26.2,5.57,26.2l-22.4-11.19l-8.29,24.12l24.78,2.77l-18.27,18l21.06,14.43
	l11.54-23.1l11.41,23.45l20.72-15l-18.5-17.89l25.4-2.42l-8.02-24.23l-22.4,11.19l5.06-26.31H672.31z"/>
</svg>
